<?xml version="1.0" standalone="no"?>
<!DOCTYPE svg PUBLIC "-//W3C//DTD SVG 20010904//EN"
 "http://www.w3.org/TR/2001/REC-SVG-20010904/DTD/svg10.dtd">
<svg version="1.0" xmlns="http://www.w3.org/2000/svg"
 width="50.000000pt" height="50.000000pt" viewBox="0 0 50.000000 50.000000"
 preserveAspectRatio="xMidYMid meet">

<g transform="translate(0.000000,50.000000) scale(0.100000,-0.100000)"
fill="#000000" stroke="none">
<path d="M0 250 l0 -250 250 0 250 0 0 250 0 250 -250 0 -250 0 0 -250z m290
195 c0 -8 -3 -15 -8 -15 -4 0 -13 -9 -19 -19 -10 -17 -9 -18 10 -13 21 5 21 5
-3 -25 -14 -17 -29 -28 -33 -25 -5 2 -4 -4 1 -14 16 -30 -35 -130 -55 -110 -4
3 1 14 10 23 21 24 39 73 27 73 -18 0 -10 67 10 93 11 14 20 30 20 36 0 6 9
11 20 11 11 0 20 -7 20 -15z m-90 -109 c0 -52 -14 -85 -56 -131 -24 -27 -44
-46 -44 -42 0 4 13 33 29 65 15 31 34 74 40 95 14 42 31 49 31 13z m157 -4
c-10 -10 -17 -21 -17 -25 0 -3 -18 -35 -40 -69 -48 -76 -52 -65 -7 23 43 86
46 89 64 89 15 0 14 -2 0 -18z m-27 -131 c0 -5 -8 -17 -17 -27 -20 -20 -32 -1
-13 21 14 17 30 20 30 6z"/>
</g>
</svg>
